PathFileType	4	(X/Y/Z)	C:/Users/beibeiliu/ov580/test_trc/capture2\sequence.20_training_dense_left.trc
DataRate	CameraRate	NumFrames	NumMarkers	Units	OrigDataRate	OrigDataStartFrame	OrigNumFrames
120	120	8	19	mm	120	127	337
Frame#	Time	ThumbCMC			ThumbMCP			ThumbIP			ThumbTip			IndexMCP			IndexPIP			IndexTip			MiddleMCP			MiddlePIP			MiddleTip			RingMCP			RingPIP			RingTip			PinkyMCP			PinkyPIP			PinkyTip			BackHand1			BackHand2			BackHand3	
		X0	Y0	Z0	X1	Y1	Z1	X2	Y2	Z2	X3	Y3	Z3	X4	Y4	Z4	X5	Y5	Z5	X6	Y6	Z6	X7	Y7	Z7	X8	Y8	Z8	X9	Y9	Z9	X10	Y10	Z10	X11	Y11	Z11	X12	Y12	Z12	X13	Y13	Z13	X14	Y14	Z14	X15	Y15	Z15	X16	Y16	Z16	X17	Y17	Z17	X18	Y18	Z18	
126	1.05	-106.951	112.199	70.8789	-92.5808	131.93	55.6295	-92.3359	161.652	39.8403	-109.074	172.076	22.7297	-123.058	185.942	58.3636	-122.273	206.722	49.4061	-127.222	230.962	33.5263	-138.949	185.293	43.6797	-134.775	209.888	35.6497	-133.743	236.353	23.36	-150.67	183.612	28.9485	-147.692	203.521	21.2427	-146.493	226.765	13.2541	-160.148	162.944	17.3316	-155.041	182.251	14.9257	-158.988	207.83	8.95306	-161.776	138.605	49.8171	-166.077	106.346	60.2957	-143.628	128.544	75.3218	
127	1.05833	-107.022	108.652	69.0121	-88.236	129.867	51.7299	-93.1517	154.482	36.8895	-110.683	172.36	18.8479	-122.24	181.579	55.126	-119.828	202.857	47.8034	-125.386	228.281	34.2787	-134.336	188.343	44.2854	-133.529	210.377	32.445	-133.866	236.727	20.3704	-148.395	180.63	30.8361	-148.026	200.587	20.9686	-143.389	228.918	14.8226	-160.561	162.461	18.1905	-159.028	182.198	12.1301	-158.238	207.348	10.8339	-160.558	132.411	52.43	-166.827	110.312	61.9435	-142.413	127.088	74.2204	
128	1.06667	-107.006	105.023	65.922	-89.1886	126.044	47.9234	-92.2387	152.096	32.9079	-106.198	166.572	17.4708	-120.4	175.655	53.8902	-119.225	201.153	44.6067	-119.869	221.563	36.8845	-134.828	185.567	40.447	-132.262	208.194	32.2803	-133.78	232.483	18.3032	-148.506	179.792	29.2534	-147.215	197.63	21.5859	-143.36	226.421	13.0371	-158.314	158.538	19.8044	-158.596	181.976	12.357	-156.345	207.855	11.608	-160.027	133	49.8129	-167.878	105.956	62.3468	-139.455	121.655	76.4047	
129	1.075	-105.532	103.397	63.3691	-90.4247	123.625	43.6952	-92.7066	151.433	28.6783	-106.828	161.244	15.9091	-115.547	173.274	53.0086	-116.373	200.862	41.7482	-119.43	219.338	34.2602	-135.426	180.296	37.4166	-130.779	205.992	27.9566	-132.868	230.477	16.9692	-147.93	176.386	26.8129	-147.62	197.279	18.8055	-144.391	222.629	10.467	-160.727	157.801	17.7456	-156.67	179.809	12.9909	-157.343	205.396	11.462	-159.558	131.015	49.7208	-165.091	105.742	62.99	-135.698	122.241	73.7663	
130	1.08333	-104.709	103.786	60.1728	-88.7041	124.552	40.8017	-90.4474	147.7	23.8962	-106.712	161.417	9.54835	-113.001	171.65	48.6695	-116.325	196.683	37.1232	-121.154	219.475	26.8729	-130.768	179.982	35.7562	-130.363	202.105	24.7144	-130.856	226.864	13.6207	-148.332	170.367	25.3811	-142.837	197.972	17.3259	-142.823	222.959	8.04007	-157.321	157.747	16.6129	-155.102	176.986	10.6398	-157.727	202.041	6.7044	-159.427	133.596	46.7283	-163.809	104.888	59.2056	-135.21	119.033	72.0743	
131	1.09167	-104.591	99.0435	56.4021	-88.269	118.902	36.6797	-87.4985	141.258	20.383	-106.348	154.404	4.3327	-112.107	171.161	41.1517	-112.955	191.103	32.1928	-120.56	212.651	20.0791	-130.355	178.764	30.7895	-129.192	200.218	19.2422	-132.713	226.144	6.41961	-145.545	169.889	20.3731	-145.76	193.736	11.3355	-145.462	216.089	2.16318	-154.843	153.682	14.3892	-156.116	174.603	5.02248	-159.901	200.968	2.30965	-158.699	128.465	44.0727	-161.433	105.14	60.9161	-133.871	117.355	68.1694	
132	1.1	-101.464	98.6071	53.7564	-83.3181	116.86	32.0115	-86.1266	139.812	15.3125	-102.729	150.655	0.390711	-110.123	166.797	34.6453	-112.368	189.449	23.6609	-115.653	210.293	14.3814	-127.125	176.784	25.2446	-128.514	197.905	12.718	-130.618	224.907	0.686838	-139.236	169.389	17.8618	-142.072	191.797	5.8984	-139.58	213.868	-0.473039	-153.003	151.706	11.2888	-152.772	174.153	1.83774	-155.842	198.029	-3.14886	-151.961	129.138	41.1148	-158.862	101.501	60.9138	-127.33	121.704	64.6681	
133	1.10833	-95.6016	96.1685	52.0182	-80.114	110.041	30.6828	-83.8395	132.553	11.7364	-102.885	148.494	-5.32985	-103.268	163.038	31.6567	-105.871	184.959	17.8528	-109.406	208.643	7.59403	-122.909	172.072	21.8707	-119.344	194.571	10.4225	-125.591	218.521	-2.39023	-140.965	163.349	13.8415	-135.636	185.837	3.72224	-134.545	212.626	-5.49799	-153.968	149.716	7.82213	-152.91	170.029	-0.80706	-150.07	192.317	-4.90091	-150.598	125.557	43.5454	-156.791	102.792	59.5056	-126.419	117.298	63.0385	
